<svg width="130" height="34" viewBox="0 0 130 34" fill="none" xmlns="http://www.w3.org/2000/svg">
<path d="M1.69568 34V0.167514H10.865C13.3256 0.167514 15.1133 0.769834 16.2283 1.97448C17.356 3.1663 17.9199 5.13986 17.9199 7.89516V9.37533C17.9199 10.9644 17.6315 12.2524 17.0549 13.2391C16.491 14.2259 15.6259 14.8731 14.4597 15.1807C15.9848 15.5651 17.0036 16.4686 17.5162 17.8911C18.0416 19.3008 18.3043 21.0245 18.3043 23.0621C18.3043 25.2535 18.0993 27.1694 17.6892 28.8098C17.2791 30.4501 16.5358 31.7253 15.4593 32.6351C14.3829 33.545 12.8514 34 10.865 34H1.69568ZM8.30839 12.9124H9.69245C10.3204 12.9124 10.7241 12.6689 10.9035 12.1819C11.0829 11.6949 11.1726 11.1118 11.1726 10.4326V7.03012C11.1726 5.94082 10.692 5.39617 9.73089 5.39617H8.30839V12.9124ZM8.9812 28.0409C10.7369 28.0409 11.6147 27.2079 11.6147 25.5419V21.3128C11.6147 20.3517 11.4674 19.5956 11.1726 19.0445C10.8907 18.4806 10.3524 18.1987 9.55789 18.1987H8.30839V28.0024C8.59033 28.028 8.8146 28.0409 8.9812 28.0409ZM20.5342 34V0.167514H34.0672V6.70333H27.416V13.2968H33.7981V19.6596H27.416V27.4065H34.5093V34H20.5342ZM39.4112 34L35.778 0.167514H42.3908L44.2554 21.5243L46.1585 0.167514H52.4636L54.2706 21.5243L56.0775 0.167514H62.7671L59.0763 34H50.9642L49.2726 17.7181L47.6579 34H39.4112ZM64.7855 34V0.167514H78.3185V6.70333H71.6674V13.2968H78.0494V19.6596H71.6674V27.4065H78.7607V34H64.7855ZM80.087 34L83.355 0.167514H94.8311L98.0413 34H91.6401L91.1595 28.5406H87.0842L86.6613 34H80.087ZM87.5648 23.139H90.6405L89.1603 5.93441H88.8527L87.5648 23.139ZM100.117 34V0.167514H110.498C112.228 0.167514 113.535 0.564789 114.419 1.35934C115.304 2.14107 115.893 3.24319 116.188 4.66569C116.495 6.07538 116.649 7.73496 116.649 9.64445C116.649 11.4899 116.412 12.9636 115.938 14.0657C115.477 15.1679 114.599 15.9304 113.304 16.3533C114.368 16.5711 115.111 17.103 115.534 17.9488C115.97 18.7818 116.188 19.8647 116.188 21.1975V34H109.517V20.7553C109.517 19.7686 109.312 19.1598 108.902 18.9292C108.505 18.6857 107.858 18.5639 106.961 18.5639V34H100.117ZM106.999 12.7009H108.633C109.569 12.7009 110.036 11.6821 110.036 9.64445C110.036 8.32447 109.934 7.45944 109.729 7.04934C109.524 6.63925 109.139 6.43421 108.576 6.43421H106.999V12.7009Z" fill="black"/>
<path d="M124.816 0C125.773 0 126.628 0.211765 127.381 0.635294C128.149 1.05882 128.745 1.6549 129.169 2.42353C129.592 3.17647 129.804 4.03922 129.804 5.01176C129.804 5.96863 129.592 6.82353 129.169 7.57647C128.745 8.32941 128.149 8.92549 127.381 9.36471C126.628 9.78823 125.773 10 124.816 10C123.859 10 122.996 9.78823 122.228 9.36471C121.475 8.92549 120.879 8.32941 120.439 7.57647C120.016 6.82353 119.804 5.96863 119.804 5.01176C119.804 4.03922 120.016 3.17647 120.439 2.42353C120.879 1.6549 121.475 1.05882 122.228 0.635294C122.996 0.211765 123.859 0 124.816 0ZM124.816 8.8C125.945 8.8 126.847 8.4549 127.522 7.76471C128.212 7.05882 128.557 6.14118 128.557 5.01176C128.557 3.86667 128.212 2.94902 127.522 2.25882C126.847 1.55294 125.945 1.2 124.816 1.2C123.687 1.2 122.785 1.55294 122.11 2.25882C121.436 2.94902 121.098 3.86667 121.098 5.01176C121.098 6.15686 121.436 7.07451 122.11 7.76471C122.785 8.4549 123.687 8.8 124.816 8.8ZM127.028 4.07059C127.028 4.41569 126.941 4.71373 126.769 4.96471C126.612 5.21569 126.385 5.40392 126.087 5.52941L127.31 7.45882H125.475L124.463 5.69412H124.322V7.45882H122.745V2.42353H125.216C125.765 2.42353 126.204 2.58039 126.534 2.89412C126.863 3.19216 127.028 3.58431 127.028 4.07059ZM124.298 4.51765H125.051C125.161 4.51765 125.255 4.48627 125.334 4.42353C125.412 4.36078 125.451 4.26667 125.451 4.14118C125.451 3.90588 125.318 3.78823 125.051 3.78823H124.298V4.51765Z" fill="black"/>
</svg>
